<?xml version="1.0" encoding="UTF-8" standalone="no"?>
<!DOCTYPE svg PUBLIC "-//W3C//DTD SVG 1.1//EN"
 "http://www.w3.org/Graphics/SVG/1.1/DTD/svg11.dtd">
<!-- Generated by graphviz version 2.40.1 (20161225.0304)
 -->
<!-- Title: dependencies Pages: 1 -->
<svg width="1346pt" height="211pt"
 viewBox="0.00 0.00 1346.00 211.00" xmlns="http://www.w3.org/2000/svg" xmlns:xlink="http://www.w3.org/1999/xlink">
<g id="graph0" class="graph" transform="scale(1 1) rotate(0) translate(4 207)">
<title>dependencies</title>
<polygon fill="#ffffff" stroke="transparent" points="-4,4 -4,-207 1342,-207 1342,4 -4,4"/>
<text text-anchor="start" x="648.0091" y="-42.4" font-family="sans-serif" font-weight="bold" font-size="14.00" fill="#000000">Legend</text>
<polygon fill="#ffffb3" stroke="transparent" points="435,-10 435,-30 455,-30 455,-10 435,-10"/>
<text text-anchor="start" x="458.629" y="-15.4" font-family="sans-serif" font-size="14.00" fill="#000000"> &#160;Declarations</text>
<polygon fill="#8dd3c7" stroke="transparent" points="548,-10 548,-30 568,-30 568,-10 548,-10"/>
<text text-anchor="start" x="571.7251" y="-15.4" font-family="sans-serif" font-size="14.00" fill="#000000"> &#160;Module</text>
<polygon fill="#80b1d3" stroke="transparent" points="634,-10 634,-30 654,-30 654,-10 634,-10"/>
<text text-anchor="start" x="657.7812" y="-15.4" font-family="sans-serif" font-size="14.00" fill="#000000"> &#160;Bootstrap</text>
<polygon fill="#fdb462" stroke="transparent" points="731,-10 731,-30 751,-30 751,-10 731,-10"/>
<text text-anchor="start" x="754.6732" y="-15.4" font-family="sans-serif" font-size="14.00" fill="#000000"> &#160;Providers</text>
<polygon fill="#fb8072" stroke="transparent" points="827,-10 827,-30 847,-30 847,-10 827,-10"/>
<text text-anchor="start" x="850.7258" y="-15.4" font-family="sans-serif" font-size="14.00" fill="#000000"> &#160;Exports</text>
<g id="clust1" class="cluster">
<title>cluster_CollectedConsentsModule</title>
<polygon fill="none" stroke="#000000" stroke-dasharray="1,5" points="8,-70 8,-195 1330,-195 1330,-70 8,-70"/>
</g>
<g id="clust2" class="cluster">
<title>cluster_CollectedConsentsModule_declarations</title>
<polygon fill="none" stroke="#000000" points="366,-78 366,-130 1322,-130 1322,-78 366,-78"/>
</g>
<g id="clust8" class="cluster">
<title>cluster_CollectedConsentsModule_imports</title>
<polygon fill="none" stroke="#000000" points="16,-78 16,-130 358,-130 358,-78 16,-78"/>
</g>
<!-- CollectedConsentsComponent -->
<g id="node1" class="node">
<title>CollectedConsentsComponent</title>
<polygon fill="#ffffb3" stroke="#000000" points="1314.3159,-122 1127.6841,-122 1127.6841,-86 1314.3159,-86 1314.3159,-122"/>
<text text-anchor="middle" x="1221" y="-99.8" font-family="Times,serif" font-size="14.00" fill="#000000">CollectedConsentsComponent</text>
</g>
<!-- CollectedConsentsModule -->
<g id="node6" class="node">
<title>CollectedConsentsModule</title>
<polygon fill="#8dd3c7" stroke="#000000" points="713.0337,-187 710.0337,-191 689.0337,-191 686.0337,-187 548.9663,-187 548.9663,-151 713.0337,-151 713.0337,-187"/>
<text text-anchor="middle" x="631" y="-164.8" font-family="Times,serif" font-size="14.00" fill="#000000">CollectedConsentsModule</text>
</g>
<!-- CollectedConsentsComponent&#45;&gt;CollectedConsentsModule -->
<g id="edge1" class="edge">
<title>CollectedConsentsComponent&#45;&gt;CollectedConsentsModule</title>
<path fill="none" stroke="#000000" d="M1221,-122.2921C1221,-144.2057 1221,-178 1221,-178 1221,-178 723.037,-178 723.037,-178"/>
<polygon fill="#000000" stroke="#000000" points="723.037,-174.5001 713.037,-178 723.0369,-181.5001 723.037,-174.5001"/>
</g>
<!-- PaginationComponent -->
<g id="node2" class="node">
<title>PaginationComponent</title>
<polygon fill="#ffffb3" stroke="#000000" points="1109.7162,-122 968.2838,-122 968.2838,-86 1109.7162,-86 1109.7162,-122"/>
<text text-anchor="middle" x="1039" y="-99.8" font-family="Times,serif" font-size="14.00" fill="#000000">PaginationComponent</text>
</g>
<!-- PaginationComponent&#45;&gt;CollectedConsentsModule -->
<g id="edge2" class="edge">
<title>PaginationComponent&#45;&gt;CollectedConsentsModule</title>
<path fill="none" stroke="#000000" d="M1039,-122.1061C1039,-141.3391 1039,-169 1039,-169 1039,-169 723.0741,-169 723.0741,-169"/>
<polygon fill="#000000" stroke="#000000" points="723.0741,-165.5001 713.0741,-169 723.0741,-172.5001 723.0741,-165.5001"/>
</g>
<!-- PaginationControllerComponent -->
<g id="node3" class="node">
<title>PaginationControllerComponent</title>
<polygon fill="#ffffb3" stroke="#000000" points="950.2603,-122 751.7397,-122 751.7397,-86 950.2603,-86 950.2603,-122"/>
<text text-anchor="middle" x="851" y="-99.8" font-family="Times,serif" font-size="14.00" fill="#000000">PaginationControllerComponent</text>
</g>
<!-- PaginationControllerComponent&#45;&gt;CollectedConsentsModule -->
<g id="edge3" class="edge">
<title>PaginationControllerComponent&#45;&gt;CollectedConsentsModule</title>
<path fill="none" stroke="#000000" d="M851,-122.027C851,-138.3976 851,-160 851,-160 851,-160 723.2327,-160 723.2327,-160"/>
<polygon fill="#000000" stroke="#000000" points="723.2328,-156.5001 713.2327,-160 723.2327,-163.5001 723.2328,-156.5001"/>
</g>
<!-- PaginationPagesPanelComponent -->
<g id="node4" class="node">
<title>PaginationPagesPanelComponent</title>
<polygon fill="#ffffb3" stroke="#000000" points="733.4748,-122 528.5252,-122 528.5252,-86 733.4748,-86 733.4748,-122"/>
<text text-anchor="middle" x="631" y="-99.8" font-family="Times,serif" font-size="14.00" fill="#000000">PaginationPagesPanelComponent</text>
</g>
<!-- PaginationPagesPanelComponent&#45;&gt;CollectedConsentsModule -->
<g id="edge4" class="edge">
<title>PaginationPagesPanelComponent&#45;&gt;CollectedConsentsModule</title>
<path fill="none" stroke="#000000" d="M631,-122.1061C631,-122.1061 631,-140.991 631,-140.991"/>
<polygon fill="#000000" stroke="#000000" points="627.5001,-140.9909 631,-150.991 634.5001,-140.991 627.5001,-140.9909"/>
</g>
<!-- StringifyConsentPipe -->
<g id="node5" class="node">
<title>StringifyConsentPipe</title>
<polygon fill="#ffffb3" stroke="#000000" points="510.0505,-122 373.9495,-122 373.9495,-86 510.0505,-86 510.0505,-122"/>
<text text-anchor="middle" x="442" y="-99.8" font-family="Times,serif" font-size="14.00" fill="#000000">StringifyConsentPipe</text>
</g>
<!-- StringifyConsentPipe&#45;&gt;CollectedConsentsModule -->
<g id="edge5" class="edge">
<title>StringifyConsentPipe&#45;&gt;CollectedConsentsModule</title>
<path fill="none" stroke="#000000" d="M442,-122.027C442,-138.3976 442,-160 442,-160 442,-160 538.9264,-160 538.9264,-160"/>
<polygon fill="#000000" stroke="#000000" points="538.9265,-163.5001 548.9264,-160 538.9264,-156.5001 538.9265,-163.5001"/>
</g>
<!-- CollectedConsentsRoutingModule -->
<g id="node7" class="node">
<title>CollectedConsentsRoutingModule</title>
<polygon fill="#8dd3c7" stroke="#000000" points="349.6511,-122 346.6511,-126 325.6511,-126 322.6511,-122 140.3489,-122 140.3489,-86 349.6511,-86 349.6511,-122"/>
<text text-anchor="middle" x="245" y="-99.8" font-family="Times,serif" font-size="14.00" fill="#000000">CollectedConsentsRoutingModule</text>
</g>
<!-- CollectedConsentsRoutingModule&#45;&gt;CollectedConsentsModule -->
<g id="edge6" class="edge">
<title>CollectedConsentsRoutingModule&#45;&gt;CollectedConsentsModule</title>
<path fill="none" stroke="#000000" d="M245,-122.1061C245,-141.3391 245,-169 245,-169 245,-169 538.6668,-169 538.6668,-169"/>
<polygon fill="#000000" stroke="#000000" points="538.6668,-172.5001 548.6668,-169 538.6667,-165.5001 538.6668,-172.5001"/>
</g>
<!-- SharedModule -->
<g id="node8" class="node">
<title>SharedModule</title>
<polygon fill="#8dd3c7" stroke="#000000" points="122.4231,-122 119.4231,-126 98.4231,-126 95.4231,-122 23.5769,-122 23.5769,-86 122.4231,-86 122.4231,-122"/>
<text text-anchor="middle" x="73" y="-99.8" font-family="Times,serif" font-size="14.00" fill="#000000">SharedModule</text>
</g>
<!-- SharedModule&#45;&gt;CollectedConsentsModule -->
<g id="edge7" class="edge">
<title>SharedModule&#45;&gt;CollectedConsentsModule</title>
<path fill="none" stroke="#000000" d="M73,-122.2921C73,-144.2057 73,-178 73,-178 73,-178 538.965,-178 538.965,-178"/>
<polygon fill="#000000" stroke="#000000" points="538.965,-181.5001 548.965,-178 538.965,-174.5001 538.965,-181.5001"/>
</g>
</g>
</svg>
