<?xml version="1.0" encoding="UTF-8" standalone="no"?>
<!DOCTYPE svg PUBLIC "-//W3C//DTD SVG 1.1//EN"
 "http://www.w3.org/Graphics/SVG/1.1/DTD/svg11.dtd">
<!-- Generated by graphviz version 2.40.1 (20161225.0304)
 -->
<!-- Title: dependencies Pages: 1 -->
<svg width="731pt" height="211pt"
 viewBox="0.00 0.00 731.00 211.00" xmlns="http://www.w3.org/2000/svg" xmlns:xlink="http://www.w3.org/1999/xlink">
<g id="graph0" class="graph" transform="scale(1 1) rotate(0) translate(4 207)">
<title>dependencies</title>
<polygon fill="#ffffff" stroke="transparent" points="-4,4 -4,-207 727,-207 727,4 -4,4"/>
<text text-anchor="start" x="340.5091" y="-42.4" font-family="sans-serif" font-weight="bold" font-size="14.00" fill="#000000">Legend</text>
<polygon fill="#ffffb3" stroke="transparent" points="127.5,-10 127.5,-30 147.5,-30 147.5,-10 127.5,-10"/>
<text text-anchor="start" x="151.129" y="-15.4" font-family="sans-serif" font-size="14.00" fill="#000000"> &#160;Declarations</text>
<polygon fill="#8dd3c7" stroke="transparent" points="240.5,-10 240.5,-30 260.5,-30 260.5,-10 240.5,-10"/>
<text text-anchor="start" x="264.2251" y="-15.4" font-family="sans-serif" font-size="14.00" fill="#000000"> &#160;Module</text>
<polygon fill="#80b1d3" stroke="transparent" points="326.5,-10 326.5,-30 346.5,-30 346.5,-10 326.5,-10"/>
<text text-anchor="start" x="350.2812" y="-15.4" font-family="sans-serif" font-size="14.00" fill="#000000"> &#160;Bootstrap</text>
<polygon fill="#fdb462" stroke="transparent" points="423.5,-10 423.5,-30 443.5,-30 443.5,-10 423.5,-10"/>
<text text-anchor="start" x="447.1732" y="-15.4" font-family="sans-serif" font-size="14.00" fill="#000000"> &#160;Providers</text>
<polygon fill="#fb8072" stroke="transparent" points="519.5,-10 519.5,-30 539.5,-30 539.5,-10 519.5,-10"/>
<text text-anchor="start" x="543.2258" y="-15.4" font-family="sans-serif" font-size="14.00" fill="#000000"> &#160;Exports</text>
<g id="clust1" class="cluster">
<title>cluster_GiveConsentModule</title>
<polygon fill="none" stroke="#000000" stroke-dasharray="1,5" points="8,-70 8,-195 715,-195 715,-70 8,-70"/>
</g>
<g id="clust2" class="cluster">
<title>cluster_GiveConsentModule_declarations</title>
<polygon fill="none" stroke="#000000" points="334,-78 334,-130 707,-130 707,-78 334,-78"/>
</g>
<g id="clust5" class="cluster">
<title>cluster_GiveConsentModule_imports</title>
<polygon fill="none" stroke="#000000" points="16,-78 16,-130 326,-130 326,-78 16,-78"/>
</g>
<!-- GiveConsentComponent -->
<g id="node1" class="node">
<title>GiveConsentComponent</title>
<polygon fill="#ffffb3" stroke="#000000" points="699.4312,-122 544.5688,-122 544.5688,-86 699.4312,-86 699.4312,-122"/>
<text text-anchor="middle" x="622" y="-99.8" font-family="Times,serif" font-size="14.00" fill="#000000">GiveConsentComponent</text>
</g>
<!-- GiveConsentModule -->
<g id="node3" class="node">
<title>GiveConsentModule</title>
<polygon fill="#8dd3c7" stroke="#000000" points="397.1485,-187 394.1485,-191 373.1485,-191 370.1485,-187 264.8515,-187 264.8515,-151 397.1485,-151 397.1485,-187"/>
<text text-anchor="middle" x="331" y="-164.8" font-family="Times,serif" font-size="14.00" fill="#000000">GiveConsentModule</text>
</g>
<!-- GiveConsentComponent&#45;&gt;GiveConsentModule -->
<g id="edge1" class="edge">
<title>GiveConsentComponent&#45;&gt;GiveConsentModule</title>
<path fill="none" stroke="#000000" d="M622,-122.1061C622,-141.3391 622,-169 622,-169 622,-169 407.3965,-169 407.3965,-169"/>
<polygon fill="#000000" stroke="#000000" points="407.3966,-165.5001 397.3965,-169 407.3965,-172.5001 407.3966,-165.5001"/>
</g>
<!-- GiveConsentFormComponent -->
<g id="node2" class="node">
<title>GiveConsentFormComponent</title>
<polygon fill="#ffffb3" stroke="#000000" points="526.2646,-122 341.7354,-122 341.7354,-86 526.2646,-86 526.2646,-122"/>
<text text-anchor="middle" x="434" y="-99.8" font-family="Times,serif" font-size="14.00" fill="#000000">GiveConsentFormComponent</text>
</g>
<!-- GiveConsentFormComponent&#45;&gt;GiveConsentModule -->
<g id="edge2" class="edge">
<title>GiveConsentFormComponent&#45;&gt;GiveConsentModule</title>
<path fill="none" stroke="#000000" d="M369.4709,-122.1061C369.4709,-122.1061 369.4709,-140.991 369.4709,-140.991"/>
<polygon fill="#000000" stroke="#000000" points="365.971,-140.9909 369.4709,-150.991 372.971,-140.991 365.971,-140.9909"/>
</g>
<!-- GiveConsentRoutingModule -->
<g id="node4" class="node">
<title>GiveConsentRoutingModule</title>
<polygon fill="#8dd3c7" stroke="#000000" points="317.766,-122 314.766,-126 293.766,-126 290.766,-122 140.234,-122 140.234,-86 317.766,-86 317.766,-122"/>
<text text-anchor="middle" x="229" y="-99.8" font-family="Times,serif" font-size="14.00" fill="#000000">GiveConsentRoutingModule</text>
</g>
<!-- GiveConsentRoutingModule&#45;&gt;GiveConsentModule -->
<g id="edge3" class="edge">
<title>GiveConsentRoutingModule&#45;&gt;GiveConsentModule</title>
<path fill="none" stroke="#000000" d="M291.2795,-122.1061C291.2795,-122.1061 291.2795,-140.991 291.2795,-140.991"/>
<polygon fill="#000000" stroke="#000000" points="287.7795,-140.9909 291.2795,-150.991 294.7795,-140.991 287.7795,-140.9909"/>
</g>
<!-- SharedModule -->
<g id="node5" class="node">
<title>SharedModule</title>
<polygon fill="#8dd3c7" stroke="#000000" points="122.4231,-122 119.4231,-126 98.4231,-126 95.4231,-122 23.5769,-122 23.5769,-86 122.4231,-86 122.4231,-122"/>
<text text-anchor="middle" x="73" y="-99.8" font-family="Times,serif" font-size="14.00" fill="#000000">SharedModule</text>
</g>
<!-- SharedModule&#45;&gt;GiveConsentModule -->
<g id="edge4" class="edge">
<title>SharedModule&#45;&gt;GiveConsentModule</title>
<path fill="none" stroke="#000000" d="M73,-122.1061C73,-141.3391 73,-169 73,-169 73,-169 254.5586,-169 254.5586,-169"/>
<polygon fill="#000000" stroke="#000000" points="254.5586,-172.5001 264.5586,-169 254.5586,-165.5001 254.5586,-172.5001"/>
</g>
</g>
</svg>
