<?xml version="1.0" encoding="UTF-8" standalone="no"?>
<!DOCTYPE svg PUBLIC "-//W3C//DTD SVG 1.1//EN"
 "http://www.w3.org/Graphics/SVG/1.1/DTD/svg11.dtd">
<!-- Generated by graphviz version 2.40.1 (20161225.0304)
 -->
<!-- Title: dependencies Pages: 1 -->
<svg width="2903pt" height="284pt"
 viewBox="0.00 0.00 2903.00 284.00" xmlns="http://www.w3.org/2000/svg" xmlns:xlink="http://www.w3.org/1999/xlink">
<g id="graph0" class="graph" transform="scale(1 1) rotate(0) translate(4 280)">
<title>dependencies</title>
<polygon fill="#ffffff" stroke="transparent" points="-4,4 -4,-280 2899,-280 2899,4 -4,4"/>
<text text-anchor="start" x="1426.5091" y="-42.4" font-family="sans-serif" font-weight="bold" font-size="14.00" fill="#000000">Legend</text>
<polygon fill="#ffffb3" stroke="transparent" points="1213.5,-10 1213.5,-30 1233.5,-30 1233.5,-10 1213.5,-10"/>
<text text-anchor="start" x="1237.129" y="-15.4" font-family="sans-serif" font-size="14.00" fill="#000000"> &#160;Declarations</text>
<polygon fill="#8dd3c7" stroke="transparent" points="1326.5,-10 1326.5,-30 1346.5,-30 1346.5,-10 1326.5,-10"/>
<text text-anchor="start" x="1350.2251" y="-15.4" font-family="sans-serif" font-size="14.00" fill="#000000"> &#160;Module</text>
<polygon fill="#80b1d3" stroke="transparent" points="1412.5,-10 1412.5,-30 1432.5,-30 1432.5,-10 1412.5,-10"/>
<text text-anchor="start" x="1436.2812" y="-15.4" font-family="sans-serif" font-size="14.00" fill="#000000"> &#160;Bootstrap</text>
<polygon fill="#fdb462" stroke="transparent" points="1509.5,-10 1509.5,-30 1529.5,-30 1529.5,-10 1509.5,-10"/>
<text text-anchor="start" x="1533.1732" y="-15.4" font-family="sans-serif" font-size="14.00" fill="#000000"> &#160;Providers</text>
<polygon fill="#fb8072" stroke="transparent" points="1605.5,-10 1605.5,-30 1625.5,-30 1625.5,-10 1605.5,-10"/>
<text text-anchor="start" x="1629.2258" y="-15.4" font-family="sans-serif" font-size="14.00" fill="#000000"> &#160;Exports</text>
<g id="clust7" class="cluster">
<title>cluster_AppModule</title>
<polygon fill="none" stroke="#000000" stroke-dasharray="1,5" points="8,-70 8,-268 1075,-268 1075,-70 8,-70"/>
</g>
<g id="clust8" class="cluster">
<title>cluster_AppModule_declarations</title>
<polygon fill="none" stroke="#000000" points="246,-78 246,-130 663,-130 663,-78 246,-78"/>
</g>
<g id="clust12" class="cluster">
<title>cluster_AppModule_imports</title>
<polygon fill="none" stroke="#000000" points="671,-78 671,-130 1067,-130 1067,-78 671,-78"/>
</g>
<g id="clust14" class="cluster">
<title>cluster_AppModule_bootstrap</title>
<polygon fill="none" stroke="#000000" points="533,-208 533,-260 657,-260 657,-208 533,-208"/>
</g>
<g id="clust15" class="cluster">
<title>cluster_AppModule_providers</title>
<polygon fill="none" stroke="#000000" points="16,-78 16,-130 238,-130 238,-78 16,-78"/>
</g>
<g id="clust22" class="cluster">
<title>cluster_CollectedConsentsModule</title>
<polygon fill="none" stroke="#000000" stroke-dasharray="1,5" points="1083,-70 1083,-195 2288,-195 2288,-70 1083,-70"/>
</g>
<g id="clust23" class="cluster">
<title>cluster_CollectedConsentsModule_declarations</title>
<polygon fill="none" stroke="#000000" points="1325,-78 1325,-130 2280,-130 2280,-78 1325,-78"/>
</g>
<g id="clust29" class="cluster">
<title>cluster_CollectedConsentsModule_imports</title>
<polygon fill="none" stroke="#000000" points="1091,-78 1091,-130 1317,-130 1317,-78 1091,-78"/>
</g>
<g id="clust39" class="cluster">
<title>cluster_GiveConsentModule</title>
<polygon fill="none" stroke="#000000" stroke-dasharray="1,5" points="2296,-70 2296,-195 2887,-195 2887,-70 2296,-70"/>
</g>
<g id="clust40" class="cluster">
<title>cluster_GiveConsentModule_declarations</title>
<polygon fill="none" stroke="#000000" points="2506,-78 2506,-130 2879,-130 2879,-78 2506,-78"/>
</g>
<g id="clust43" class="cluster">
<title>cluster_GiveConsentModule_imports</title>
<polygon fill="none" stroke="#000000" points="2304,-78 2304,-130 2498,-130 2498,-78 2304,-78"/>
</g>
<!-- AppComponent -->
<g id="node1" class="node">
<title>AppComponent</title>
<polygon fill="#ffffb3" stroke="#000000" points="359.9399,-122 254.0601,-122 254.0601,-86 359.9399,-86 359.9399,-122"/>
<text text-anchor="middle" x="307" y="-99.8" font-family="Times,serif" font-size="14.00" fill="#000000">AppComponent</text>
</g>
<!-- AppModule -->
<g id="node4" class="node">
<title>AppModule</title>
<polygon fill="#8dd3c7" stroke="#000000" points="636.6571,-187 633.6571,-191 612.6571,-191 609.6571,-187 553.3429,-187 553.3429,-151 636.6571,-151 636.6571,-187"/>
<text text-anchor="middle" x="595" y="-164.8" font-family="Times,serif" font-size="14.00" fill="#000000">AppModule</text>
</g>
<!-- AppComponent&#45;&gt;AppModule -->
<g id="edge1" class="edge">
<title>AppComponent&#45;&gt;AppModule</title>
<path fill="none" stroke="#000000" d="M307,-122.1061C307,-141.3391 307,-169 307,-169 307,-169 543.1223,-169 543.1223,-169"/>
<polygon fill="#000000" stroke="#000000" points="543.1224,-172.5001 553.1223,-169 543.1223,-165.5001 543.1224,-172.5001"/>
</g>
<!-- LoaderComponent -->
<g id="node2" class="node">
<title>LoaderComponent</title>
<polygon fill="#ffffb3" stroke="#000000" points="655.4748,-122 534.5252,-122 534.5252,-86 655.4748,-86 655.4748,-122"/>
<text text-anchor="middle" x="595" y="-99.8" font-family="Times,serif" font-size="14.00" fill="#000000">LoaderComponent</text>
</g>
<!-- LoaderComponent&#45;&gt;AppModule -->
<g id="edge2" class="edge">
<title>LoaderComponent&#45;&gt;AppModule</title>
<path fill="none" stroke="#000000" d="M595,-122.1061C595,-122.1061 595,-140.991 595,-140.991"/>
<polygon fill="#000000" stroke="#000000" points="591.5001,-140.9909 595,-150.991 598.5001,-140.991 591.5001,-140.9909"/>
</g>
<!-- MainAreaComponent -->
<g id="node3" class="node">
<title>MainAreaComponent</title>
<polygon fill="#ffffb3" stroke="#000000" points="516.0786,-122 377.9214,-122 377.9214,-86 516.0786,-86 516.0786,-122"/>
<text text-anchor="middle" x="447" y="-99.8" font-family="Times,serif" font-size="14.00" fill="#000000">MainAreaComponent</text>
</g>
<!-- MainAreaComponent&#45;&gt;AppModule -->
<g id="edge3" class="edge">
<title>MainAreaComponent&#45;&gt;AppModule</title>
<path fill="none" stroke="#000000" d="M447,-122.027C447,-138.3976 447,-160 447,-160 447,-160 542.985,-160 542.985,-160"/>
<polygon fill="#000000" stroke="#000000" points="542.9851,-163.5001 552.985,-160 542.985,-156.5001 542.9851,-163.5001"/>
</g>
<!-- AppComponent  -->
<g id="node8" class="node">
<title>AppComponent </title>
<polygon fill="#80b1d3" stroke="#000000" points="649.439,-252 540.561,-252 540.561,-216 649.439,-216 649.439,-252"/>
<text text-anchor="middle" x="595" y="-229.8" font-family="Times,serif" font-size="14.00" fill="#000000">AppComponent </text>
</g>
<!-- AppModule&#45;&gt;AppComponent  -->
<g id="edge7" class="edge">
<title>AppModule&#45;&gt;AppComponent </title>
<path fill="none" stroke="#000000" stroke-dasharray="1,5" d="M595,-187.1061C595,-187.1061 595,-205.991 595,-205.991"/>
<polygon fill="#000000" stroke="#000000" points="591.5001,-205.9909 595,-215.991 598.5001,-205.991 591.5001,-205.9909"/>
</g>
<!-- AppMockModule -->
<g id="node5" class="node">
<title>AppMockModule</title>
<polygon fill="#8dd3c7" stroke="#000000" points="795.316,-122 792.316,-126 771.316,-126 768.316,-122 678.684,-122 678.684,-86 795.316,-86 795.316,-122"/>
<text text-anchor="middle" x="737" y="-99.8" font-family="Times,serif" font-size="14.00" fill="#000000">AppMockModule</text>
</g>
<!-- AppMockModule&#45;&gt;AppModule -->
<g id="edge4" class="edge">
<title>AppMockModule&#45;&gt;AppModule</title>
<path fill="none" stroke="#000000" d="M737,-122.1061C737,-141.3391 737,-169 737,-169 737,-169 646.8367,-169 646.8367,-169"/>
<polygon fill="#000000" stroke="#000000" points="646.8367,-165.5001 636.8367,-169 646.8366,-172.5001 646.8367,-165.5001"/>
</g>
<!-- AppRoutingModule -->
<g id="node6" class="node">
<title>AppRoutingModule</title>
<polygon fill="#8dd3c7" stroke="#000000" points="942.2744,-122 939.2744,-126 918.2744,-126 915.2744,-122 813.7256,-122 813.7256,-86 942.2744,-86 942.2744,-122"/>
<text text-anchor="middle" x="878" y="-99.8" font-family="Times,serif" font-size="14.00" fill="#000000">AppRoutingModule</text>
</g>
<!-- AppRoutingModule&#45;&gt;AppModule -->
<g id="edge5" class="edge">
<title>AppRoutingModule&#45;&gt;AppModule</title>
<path fill="none" stroke="#000000" d="M878,-122.2843C878,-143.3211 878,-175 878,-175 878,-175 646.7576,-175 646.7576,-175"/>
<polygon fill="#000000" stroke="#000000" points="646.7577,-171.5001 636.7576,-175 646.7576,-178.5001 646.7577,-171.5001"/>
</g>
<!-- SharedModule -->
<g id="node7" class="node">
<title>SharedModule</title>
<polygon fill="#8dd3c7" stroke="#000000" points="1059.4231,-122 1056.4231,-126 1035.4231,-126 1032.4231,-122 960.5769,-122 960.5769,-86 1059.4231,-86 1059.4231,-122"/>
<text text-anchor="middle" x="1010" y="-99.8" font-family="Times,serif" font-size="14.00" fill="#000000">SharedModule</text>
</g>
<!-- SharedModule&#45;&gt;AppModule -->
<g id="edge6" class="edge">
<title>SharedModule&#45;&gt;AppModule</title>
<path fill="none" stroke="#000000" d="M1010,-122.2479C1010,-145.0179 1010,-181 1010,-181 1010,-181 646.6919,-181 646.6919,-181"/>
<polygon fill="#000000" stroke="#000000" points="646.6919,-177.5001 636.6919,-181 646.6919,-184.5001 646.6919,-177.5001"/>
</g>
<!-- CollectedConsentsModule -->
<g id="node15" class="node">
<title>CollectedConsentsModule</title>
<polygon fill="#8dd3c7" stroke="#000000" points="1702.0337,-187 1699.0337,-191 1678.0337,-191 1675.0337,-187 1537.9663,-187 1537.9663,-151 1702.0337,-151 1702.0337,-187"/>
<text text-anchor="middle" x="1620" y="-164.8" font-family="Times,serif" font-size="14.00" fill="#000000">CollectedConsentsModule</text>
</g>
<!-- SharedModule&#45;&gt;CollectedConsentsModule -->
<g id="edge15" class="edge">
<title>SharedModule&#45;&gt;CollectedConsentsModule</title>
<path fill="none" stroke="#000000" d="M1034.6056,-122.0225C1034.6056,-139.3734 1034.6056,-163 1034.6056,-163 1034.6056,-163 1527.6782,-163 1527.6782,-163"/>
<polygon fill="#000000" stroke="#000000" points="1527.6782,-166.5001 1537.6782,-163 1527.6781,-159.5001 1527.6782,-166.5001"/>
</g>
<!-- GiveConsentModule -->
<g id="node19" class="node">
<title>GiveConsentModule</title>
<polygon fill="#8dd3c7" stroke="#000000" points="2569.1485,-187 2566.1485,-191 2545.1485,-191 2542.1485,-187 2436.8515,-187 2436.8515,-151 2569.1485,-151 2569.1485,-187"/>
<text text-anchor="middle" x="2503" y="-164.8" font-family="Times,serif" font-size="14.00" fill="#000000">GiveConsentModule</text>
</g>
<!-- SharedModule&#45;&gt;GiveConsentModule -->
<g id="edge19" class="edge">
<title>SharedModule&#45;&gt;GiveConsentModule</title>
<path fill="none" stroke="#000000" d="M985.3945,-122.0449C985.3945,-129.749 985.3945,-137 985.3945,-137 985.3945,-137 2454.4116,-137 2454.4116,-137 2454.4116,-137 2454.4116,-140.7566 2454.4116,-140.7566"/>
<polygon fill="#000000" stroke="#000000" points="2450.9117,-140.7566 2454.4116,-150.7566 2457.9117,-140.7566 2450.9117,-140.7566"/>
</g>
<!-- ShowLoaderInterceptor -->
<g id="node9" class="node">
<title>ShowLoaderInterceptor</title>
<ellipse fill="#fdb462" stroke="#000000" cx="127" cy="-104" rx="102.9705" ry="18"/>
<text text-anchor="middle" x="127" y="-99.8" font-family="Times,serif" font-size="14.00" fill="#000000">ShowLoaderInterceptor</text>
</g>
<!-- ShowLoaderInterceptor&#45;&gt;AppModule -->
<g id="edge8" class="edge">
<title>ShowLoaderInterceptor&#45;&gt;AppModule</title>
<path fill="none" stroke="#000000" d="M127,-122.2921C127,-144.2057 127,-178 127,-178 127,-178 543.0563,-178 543.0563,-178"/>
<polygon fill="#000000" stroke="#000000" points="543.0563,-181.5001 553.0563,-178 543.0562,-174.5001 543.0563,-181.5001"/>
</g>
<!-- CollectedConsentsComponent -->
<g id="node10" class="node">
<title>CollectedConsentsComponent</title>
<polygon fill="#ffffb3" stroke="#000000" points="1895.3159,-122 1708.6841,-122 1708.6841,-86 1895.3159,-86 1895.3159,-122"/>
<text text-anchor="middle" x="1802" y="-99.8" font-family="Times,serif" font-size="14.00" fill="#000000">CollectedConsentsComponent</text>
</g>
<!-- CollectedConsentsComponent&#45;&gt;CollectedConsentsModule -->
<g id="edge9" class="edge">
<title>CollectedConsentsComponent&#45;&gt;CollectedConsentsModule</title>
<path fill="none" stroke="#000000" d="M1708.5466,-104C1701.1342,-104 1696.4373,-104 1696.4373,-104 1696.4373,-104 1696.4373,-140.8939 1696.4373,-140.8939"/>
<polygon fill="#000000" stroke="#000000" points="1692.9373,-140.8938 1696.4373,-150.8939 1699.9373,-140.8939 1692.9373,-140.8938"/>
</g>
<!-- PaginationComponent -->
<g id="node11" class="node">
<title>PaginationComponent</title>
<polygon fill="#ffffb3" stroke="#000000" points="1690.7162,-122 1549.2838,-122 1549.2838,-86 1690.7162,-86 1690.7162,-122"/>
<text text-anchor="middle" x="1620" y="-99.8" font-family="Times,serif" font-size="14.00" fill="#000000">PaginationComponent</text>
</g>
<!-- PaginationComponent&#45;&gt;CollectedConsentsModule -->
<g id="edge10" class="edge">
<title>PaginationComponent&#45;&gt;CollectedConsentsModule</title>
<path fill="none" stroke="#000000" d="M1620,-122.1061C1620,-122.1061 1620,-140.991 1620,-140.991"/>
<polygon fill="#000000" stroke="#000000" points="1616.5001,-140.9909 1620,-150.991 1623.5001,-140.991 1616.5001,-140.9909"/>
</g>
<!-- PaginationControllerComponent -->
<g id="node12" class="node">
<title>PaginationControllerComponent</title>
<polygon fill="#ffffb3" stroke="#000000" points="1531.2603,-122 1332.7397,-122 1332.7397,-86 1531.2603,-86 1531.2603,-122"/>
<text text-anchor="middle" x="1432" y="-99.8" font-family="Times,serif" font-size="14.00" fill="#000000">PaginationControllerComponent</text>
</g>
<!-- PaginationControllerComponent&#45;&gt;CollectedConsentsModule -->
<g id="edge11" class="edge">
<title>PaginationControllerComponent&#45;&gt;CollectedConsentsModule</title>
<path fill="none" stroke="#000000" d="M1531.6236,-104C1538.9597,-104 1543.5628,-104 1543.5628,-104 1543.5628,-104 1543.5628,-140.8939 1543.5628,-140.8939"/>
<polygon fill="#000000" stroke="#000000" points="1540.0628,-140.8938 1543.5628,-150.8939 1547.0628,-140.8939 1540.0628,-140.8938"/>
</g>
<!-- PaginationPagesPanelComponent -->
<g id="node13" class="node">
<title>PaginationPagesPanelComponent</title>
<polygon fill="#ffffb3" stroke="#000000" points="2272.4748,-122 2067.5252,-122 2067.5252,-86 2272.4748,-86 2272.4748,-122"/>
<text text-anchor="middle" x="2170" y="-99.8" font-family="Times,serif" font-size="14.00" fill="#000000">PaginationPagesPanelComponent</text>
</g>
<!-- PaginationPagesPanelComponent&#45;&gt;CollectedConsentsModule -->
<g id="edge12" class="edge">
<title>PaginationPagesPanelComponent&#45;&gt;CollectedConsentsModule</title>
<path fill="none" stroke="#000000" d="M2170,-122.2843C2170,-143.3211 2170,-175 2170,-175 2170,-175 1712.0434,-175 1712.0434,-175"/>
<polygon fill="#000000" stroke="#000000" points="1712.0434,-171.5001 1702.0434,-175 1712.0434,-178.5001 1712.0434,-171.5001"/>
</g>
<!-- StringifyConsentPipe -->
<g id="node14" class="node">
<title>StringifyConsentPipe</title>
<polygon fill="#ffffb3" stroke="#000000" points="2049.0505,-122 1912.9495,-122 1912.9495,-86 2049.0505,-86 2049.0505,-122"/>
<text text-anchor="middle" x="1981" y="-99.8" font-family="Times,serif" font-size="14.00" fill="#000000">StringifyConsentPipe</text>
</g>
<!-- StringifyConsentPipe&#45;&gt;CollectedConsentsModule -->
<g id="edge13" class="edge">
<title>StringifyConsentPipe&#45;&gt;CollectedConsentsModule</title>
<path fill="none" stroke="#000000" d="M1981,-122.0225C1981,-139.3734 1981,-163 1981,-163 1981,-163 1712.3682,-163 1712.3682,-163"/>
<polygon fill="#000000" stroke="#000000" points="1712.3682,-159.5001 1702.3682,-163 1712.3682,-166.5001 1712.3682,-159.5001"/>
</g>
<!-- CollectedConsentsRoutingModule -->
<g id="node16" class="node">
<title>CollectedConsentsRoutingModule</title>
<polygon fill="#8dd3c7" stroke="#000000" points="1308.6511,-122 1305.6511,-126 1284.6511,-126 1281.6511,-122 1099.3489,-122 1099.3489,-86 1308.6511,-86 1308.6511,-122"/>
<text text-anchor="middle" x="1204" y="-99.8" font-family="Times,serif" font-size="14.00" fill="#000000">CollectedConsentsRoutingModule</text>
</g>
<!-- CollectedConsentsRoutingModule&#45;&gt;CollectedConsentsModule -->
<g id="edge14" class="edge">
<title>CollectedConsentsRoutingModule&#45;&gt;CollectedConsentsModule</title>
<path fill="none" stroke="#000000" d="M1204,-122.2396C1204,-137.5706 1204,-157 1204,-157 1204,-157 1527.8118,-157 1527.8118,-157"/>
<polygon fill="#000000" stroke="#000000" points="1527.8118,-160.5001 1537.8118,-157 1527.8118,-153.5001 1527.8118,-160.5001"/>
</g>
<!-- GiveConsentComponent -->
<g id="node17" class="node">
<title>GiveConsentComponent</title>
<polygon fill="#ffffb3" stroke="#000000" points="2871.4312,-122 2716.5688,-122 2716.5688,-86 2871.4312,-86 2871.4312,-122"/>
<text text-anchor="middle" x="2794" y="-99.8" font-family="Times,serif" font-size="14.00" fill="#000000">GiveConsentComponent</text>
</g>
<!-- GiveConsentComponent&#45;&gt;GiveConsentModule -->
<g id="edge16" class="edge">
<title>GiveConsentComponent&#45;&gt;GiveConsentModule</title>
<path fill="none" stroke="#000000" d="M2794,-122.1061C2794,-141.3391 2794,-169 2794,-169 2794,-169 2579.3965,-169 2579.3965,-169"/>
<polygon fill="#000000" stroke="#000000" points="2579.3966,-165.5001 2569.3965,-169 2579.3965,-172.5001 2579.3966,-165.5001"/>
</g>
<!-- GiveConsentFormComponent -->
<g id="node18" class="node">
<title>GiveConsentFormComponent</title>
<polygon fill="#ffffb3" stroke="#000000" points="2698.2646,-122 2513.7354,-122 2513.7354,-86 2698.2646,-86 2698.2646,-122"/>
<text text-anchor="middle" x="2606" y="-99.8" font-family="Times,serif" font-size="14.00" fill="#000000">GiveConsentFormComponent</text>
</g>
<!-- GiveConsentFormComponent&#45;&gt;GiveConsentModule -->
<g id="edge17" class="edge">
<title>GiveConsentFormComponent&#45;&gt;GiveConsentModule</title>
<path fill="none" stroke="#000000" d="M2541.4709,-122.1061C2541.4709,-122.1061 2541.4709,-140.991 2541.4709,-140.991"/>
<polygon fill="#000000" stroke="#000000" points="2537.971,-140.9909 2541.4709,-150.991 2544.971,-140.991 2537.971,-140.9909"/>
</g>
<!-- GiveConsentRoutingModule -->
<g id="node20" class="node">
<title>GiveConsentRoutingModule</title>
<polygon fill="#8dd3c7" stroke="#000000" points="2489.766,-122 2486.766,-126 2465.766,-126 2462.766,-122 2312.234,-122 2312.234,-86 2489.766,-86 2489.766,-122"/>
<text text-anchor="middle" x="2401" y="-99.8" font-family="Times,serif" font-size="14.00" fill="#000000">GiveConsentRoutingModule</text>
</g>
<!-- GiveConsentRoutingModule&#45;&gt;GiveConsentModule -->
<g id="edge18" class="edge">
<title>GiveConsentRoutingModule&#45;&gt;GiveConsentModule</title>
<path fill="none" stroke="#000000" d="M2472.1473,-122.1061C2472.1473,-122.1061 2472.1473,-140.991 2472.1473,-140.991"/>
<polygon fill="#000000" stroke="#000000" points="2468.6474,-140.9909 2472.1473,-150.991 2475.6474,-140.991 2468.6474,-140.9909"/>
</g>
</g>
</svg>
