<?xml version="1.0" encoding="UTF-8" standalone="no"?>
<!DOCTYPE svg PUBLIC "-//W3C//DTD SVG 1.1//EN"
 "http://www.w3.org/Graphics/SVG/1.1/DTD/svg11.dtd">
<!-- Generated by graphviz version 2.40.1 (20161225.0304)
 -->
<!-- Title: dependencies Pages: 1 -->
<svg width="1091pt" height="284pt"
 viewBox="0.00 0.00 1091.00 284.00" xmlns="http://www.w3.org/2000/svg" xmlns:xlink="http://www.w3.org/1999/xlink">
<g id="graph0" class="graph" transform="scale(1 1) rotate(0) translate(4 280)">
<title>dependencies</title>
<polygon fill="#ffffff" stroke="transparent" points="-4,4 -4,-280 1087,-280 1087,4 -4,4"/>
<text text-anchor="start" x="520.5091" y="-42.4" font-family="sans-serif" font-weight="bold" font-size="14.00" fill="#000000">Legend</text>
<polygon fill="#ffffb3" stroke="transparent" points="307.5,-10 307.5,-30 327.5,-30 327.5,-10 307.5,-10"/>
<text text-anchor="start" x="331.129" y="-15.4" font-family="sans-serif" font-size="14.00" fill="#000000"> &#160;Declarations</text>
<polygon fill="#8dd3c7" stroke="transparent" points="420.5,-10 420.5,-30 440.5,-30 440.5,-10 420.5,-10"/>
<text text-anchor="start" x="444.2251" y="-15.4" font-family="sans-serif" font-size="14.00" fill="#000000"> &#160;Module</text>
<polygon fill="#80b1d3" stroke="transparent" points="506.5,-10 506.5,-30 526.5,-30 526.5,-10 506.5,-10"/>
<text text-anchor="start" x="530.2812" y="-15.4" font-family="sans-serif" font-size="14.00" fill="#000000"> &#160;Bootstrap</text>
<polygon fill="#fdb462" stroke="transparent" points="603.5,-10 603.5,-30 623.5,-30 623.5,-10 603.5,-10"/>
<text text-anchor="start" x="627.1732" y="-15.4" font-family="sans-serif" font-size="14.00" fill="#000000"> &#160;Providers</text>
<polygon fill="#fb8072" stroke="transparent" points="699.5,-10 699.5,-30 719.5,-30 719.5,-10 699.5,-10"/>
<text text-anchor="start" x="723.2258" y="-15.4" font-family="sans-serif" font-size="14.00" fill="#000000"> &#160;Exports</text>
<g id="clust1" class="cluster">
<title>cluster_AppModule</title>
<polygon fill="none" stroke="#000000" stroke-dasharray="1,5" points="8,-70 8,-268 1075,-268 1075,-70 8,-70"/>
</g>
<g id="clust2" class="cluster">
<title>cluster_AppModule_declarations</title>
<polygon fill="none" stroke="#000000" points="650,-78 650,-130 1067,-130 1067,-78 650,-78"/>
</g>
<g id="clust6" class="cluster">
<title>cluster_AppModule_imports</title>
<polygon fill="none" stroke="#000000" points="246,-78 246,-130 642,-130 642,-78 246,-78"/>
</g>
<g id="clust8" class="cluster">
<title>cluster_AppModule_bootstrap</title>
<polygon fill="none" stroke="#000000" points="514,-208 514,-260 638,-260 638,-208 514,-208"/>
</g>
<g id="clust9" class="cluster">
<title>cluster_AppModule_providers</title>
<polygon fill="none" stroke="#000000" points="16,-78 16,-130 238,-130 238,-78 16,-78"/>
</g>
<!-- AppComponent -->
<g id="node1" class="node">
<title>AppComponent</title>
<polygon fill="#ffffb3" stroke="#000000" points="1058.9399,-122 953.0601,-122 953.0601,-86 1058.9399,-86 1058.9399,-122"/>
<text text-anchor="middle" x="1006" y="-99.8" font-family="Times,serif" font-size="14.00" fill="#000000">AppComponent</text>
</g>
<!-- AppModule -->
<g id="node4" class="node">
<title>AppModule</title>
<polygon fill="#8dd3c7" stroke="#000000" points="617.6571,-187 614.6571,-191 593.6571,-191 590.6571,-187 534.3429,-187 534.3429,-151 617.6571,-151 617.6571,-187"/>
<text text-anchor="middle" x="576" y="-164.8" font-family="Times,serif" font-size="14.00" fill="#000000">AppModule</text>
</g>
<!-- AppComponent&#45;&gt;AppModule -->
<g id="edge1" class="edge">
<title>AppComponent&#45;&gt;AppModule</title>
<path fill="none" stroke="#000000" d="M1006,-122.2921C1006,-144.2057 1006,-178 1006,-178 1006,-178 628.0131,-178 628.0131,-178"/>
<polygon fill="#000000" stroke="#000000" points="628.0132,-174.5001 618.0131,-178 628.0131,-181.5001 628.0132,-174.5001"/>
</g>
<!-- LoaderComponent -->
<g id="node2" class="node">
<title>LoaderComponent</title>
<polygon fill="#ffffb3" stroke="#000000" points="935.4748,-122 814.5252,-122 814.5252,-86 935.4748,-86 935.4748,-122"/>
<text text-anchor="middle" x="875" y="-99.8" font-family="Times,serif" font-size="14.00" fill="#000000">LoaderComponent</text>
</g>
<!-- LoaderComponent&#45;&gt;AppModule -->
<g id="edge2" class="edge">
<title>LoaderComponent&#45;&gt;AppModule</title>
<path fill="none" stroke="#000000" d="M875,-122.1061C875,-141.3391 875,-169 875,-169 875,-169 627.8895,-169 627.8895,-169"/>
<polygon fill="#000000" stroke="#000000" points="627.8895,-165.5001 617.8895,-169 627.8895,-172.5001 627.8895,-165.5001"/>
</g>
<!-- MainAreaComponent -->
<g id="node3" class="node">
<title>MainAreaComponent</title>
<polygon fill="#ffffb3" stroke="#000000" points="796.0786,-122 657.9214,-122 657.9214,-86 796.0786,-86 796.0786,-122"/>
<text text-anchor="middle" x="727" y="-99.8" font-family="Times,serif" font-size="14.00" fill="#000000">MainAreaComponent</text>
</g>
<!-- MainAreaComponent&#45;&gt;AppModule -->
<g id="edge3" class="edge">
<title>MainAreaComponent&#45;&gt;AppModule</title>
<path fill="none" stroke="#000000" d="M727,-122.027C727,-138.3976 727,-160 727,-160 727,-160 627.6611,-160 627.6611,-160"/>
<polygon fill="#000000" stroke="#000000" points="627.6612,-156.5001 617.6611,-160 627.6611,-163.5001 627.6612,-156.5001"/>
</g>
<!-- AppComponent  -->
<g id="node8" class="node">
<title>AppComponent </title>
<polygon fill="#80b1d3" stroke="#000000" points="630.439,-252 521.561,-252 521.561,-216 630.439,-216 630.439,-252"/>
<text text-anchor="middle" x="576" y="-229.8" font-family="Times,serif" font-size="14.00" fill="#000000">AppComponent </text>
</g>
<!-- AppModule&#45;&gt;AppComponent  -->
<g id="edge7" class="edge">
<title>AppModule&#45;&gt;AppComponent </title>
<path fill="none" stroke="#000000" stroke-dasharray="1,5" d="M576,-187.1061C576,-187.1061 576,-205.991 576,-205.991"/>
<polygon fill="#000000" stroke="#000000" points="572.5001,-205.9909 576,-215.991 579.5001,-205.991 572.5001,-205.9909"/>
</g>
<!-- AppMockModule -->
<g id="node5" class="node">
<title>AppMockModule</title>
<polygon fill="#8dd3c7" stroke="#000000" points="634.316,-122 631.316,-126 610.316,-126 607.316,-122 517.684,-122 517.684,-86 634.316,-86 634.316,-122"/>
<text text-anchor="middle" x="576" y="-99.8" font-family="Times,serif" font-size="14.00" fill="#000000">AppMockModule</text>
</g>
<!-- AppMockModule&#45;&gt;AppModule -->
<g id="edge4" class="edge">
<title>AppMockModule&#45;&gt;AppModule</title>
<path fill="none" stroke="#000000" d="M576,-122.1061C576,-122.1061 576,-140.991 576,-140.991"/>
<polygon fill="#000000" stroke="#000000" points="572.5001,-140.9909 576,-150.991 579.5001,-140.991 572.5001,-140.9909"/>
</g>
<!-- AppRoutingModule -->
<g id="node6" class="node">
<title>AppRoutingModule</title>
<polygon fill="#8dd3c7" stroke="#000000" points="499.2744,-122 496.2744,-126 475.2744,-126 472.2744,-122 370.7256,-122 370.7256,-86 499.2744,-86 499.2744,-122"/>
<text text-anchor="middle" x="435" y="-99.8" font-family="Times,serif" font-size="14.00" fill="#000000">AppRoutingModule</text>
</g>
<!-- AppRoutingModule&#45;&gt;AppModule -->
<g id="edge5" class="edge">
<title>AppRoutingModule&#45;&gt;AppModule</title>
<path fill="none" stroke="#000000" d="M435,-122.027C435,-138.3976 435,-160 435,-160 435,-160 524.0771,-160 524.0771,-160"/>
<polygon fill="#000000" stroke="#000000" points="524.0771,-163.5001 534.0771,-160 524.0771,-156.5001 524.0771,-163.5001"/>
</g>
<!-- SharedModule -->
<g id="node7" class="node">
<title>SharedModule</title>
<polygon fill="#8dd3c7" stroke="#000000" points="352.4231,-122 349.4231,-126 328.4231,-126 325.4231,-122 253.5769,-122 253.5769,-86 352.4231,-86 352.4231,-122"/>
<text text-anchor="middle" x="303" y="-99.8" font-family="Times,serif" font-size="14.00" fill="#000000">SharedModule</text>
</g>
<!-- SharedModule&#45;&gt;AppModule -->
<g id="edge6" class="edge">
<title>SharedModule&#45;&gt;AppModule</title>
<path fill="none" stroke="#000000" d="M303,-122.1061C303,-141.3391 303,-169 303,-169 303,-169 524.24,-169 524.24,-169"/>
<polygon fill="#000000" stroke="#000000" points="524.24,-172.5001 534.24,-169 524.24,-165.5001 524.24,-172.5001"/>
</g>
<!-- ShowLoaderInterceptor -->
<g id="node9" class="node">
<title>ShowLoaderInterceptor</title>
<ellipse fill="#fdb462" stroke="#000000" cx="127" cy="-104" rx="102.9705" ry="18"/>
<text text-anchor="middle" x="127" y="-99.8" font-family="Times,serif" font-size="14.00" fill="#000000">ShowLoaderInterceptor</text>
</g>
<!-- ShowLoaderInterceptor&#45;&gt;AppModule -->
<g id="edge8" class="edge">
<title>ShowLoaderInterceptor&#45;&gt;AppModule</title>
<path fill="none" stroke="#000000" d="M127,-122.2921C127,-144.2057 127,-178 127,-178 127,-178 524.1624,-178 524.1624,-178"/>
<polygon fill="#000000" stroke="#000000" points="524.1624,-181.5001 534.1624,-178 524.1623,-174.5001 524.1624,-181.5001"/>
</g>
</g>
</svg>
